<svg data-v-0dd9719b="" version="1.0" xmlns="http://www.w3.org/2000/svg" xmlns:xlink="http://www.w3.org/1999/xlink" width="100%" height="100%" viewBox="0 0 340.000000 250.000000" preserveAspectRatio="xMidYMid meet" color-interpolation-filters="sRGB" style="margin: auto;"> <rect data-v-0dd9719b="" x="0" y="0" width="100%" height="100%" fill="#fff" fill-opacity="1" class="background"></rect> <rect data-v-0dd9719b="" x="0" y="0" width="100%" height="100%" fill="url(#watermark)" fill-opacity="1" class="watermarklayer"></rect> <g data-v-0dd9719b="" fill="#247ab8" class="icon-text-wrapper icon-svg-group iconsvg" transform="translate(53.415000915527344,90.3555679321289)"><g class="iconsvg-imagesvg" transform="translate(0,0)"><g><rect fill="#247ab8" fill-opacity="0" stroke-width="2" x="0" y="0" width="60" height="69.28886527934961" class="image-rect"></rect> <svg x="0" y="0" width="60" height="69.28886527934961" filtersec="colorsb698857044" class="image-svg-svg primary" style="overflow: visible;"><svg xmlns="http://www.w3.org/2000/svg" viewBox="0 0 56.650001525878906 65.41999816894531"><title>资源 3</title><g id="图层_2" data-name="图层 2"><g id="Vrstva_1" data-name="Vrstva 1"><polygon points="16.73 39.4 16.73 26.02 16.73 26.02 0 16.35 0 49.06 16.73 39.4 16.73 39.4" fill="#47b3bb"></polygon><polygon points="0 16.35 16.73 26.02 28.32 19.33 39.92 26.02 56.65 16.35 28.32 0 0 16.35" fill="#225699"></polygon><polygon points="28.32 46.09 16.73 39.4 0 49.06 28.32 65.42 56.65 49.06 39.92 39.4 28.32 46.09" fill="#247ab8"></polygon><polygon points="39.92 26.02 39.92 39.4 39.92 39.4 56.65 49.06 56.65 16.35 39.92 26.02 39.92 26.02" fill="#47b3bb"></polygon></g></g></svg></svg> <!----></g></g> <g transform="translate(67,13.169431686401367)"><g data-gra="path-name" fill-rule="" class="tp-name iconsvg-namesvg"><g transform="scale(1)"><g><path d="M27.25-16.7L27.25-16.7 26.02-3.69 1.35-1.76Q1.52-11.98 1.74-22.09 1.96-32.2 2.29-42.42L2.29-42.42 17.52-42.42Q16.85-36.01 16.23-29.6 15.62-23.2 15.35-16.7L15.35-16.7Q16.73-16.64 18.08-16.64 19.42-16.64 20.8-16.64L20.8-16.64Q22.44-16.64 24.02-16.67 25.61-16.7 27.25-16.7ZM29.36-42.25L56.37-42.25Q56.19-39.49 56.04-36.8 55.9-34.1 55.66-31.35L55.66-31.35 43.24-30.7 42.95-27.01 51.68-27.01 51.04-17.93 42.25-17.64 41.95-13.36 49.22-13.36 54.38-13.36Q54.2-10.14 54.01-6.96 53.82-3.78 53.67-0.59L53.67-0.59 28.42 0 29.36-42.25ZM58.1-42.25L85.11-42.25Q84.93-39.49 84.79-36.8 84.64-34.1 84.4-31.35L84.4-31.35 71.98-30.7 71.98-27.01 82.76-27.01 82.18-17.93 71.92-17.64 71.98-0.29 57.16 0 58.1-42.25ZM87.33-42.25L114.35-42.25Q114.17-39.49 114.02-36.8 113.88-34.1 113.64-31.35L113.64-31.35 101.22-30.7 100.93-27.01 109.66-27.01 109.01-17.93 100.22-17.64 99.93-13.36 107.2-13.36 112.35-13.36Q112.18-10.14 111.99-6.96 111.8-3.78 111.65-0.59L111.65-0.59 86.4 0 87.33-42.25ZM149.68-28.24L149.68-28.24Q149.68-25.96 149.28-24.1 148.89-22.24 148.04-20.68 147.19-19.13 145.84-17.81 144.49-16.49 142.59-15.29L142.59-15.29 149.56-2.87 136.38-0.29 131.87-12.77 128.23-12.66 127.71-0.47 115.11-0.47Q115.25-7.15 115.39-13.77 115.52-20.39 115.69-27.07L115.69-27.07Q115.75-30.44 115.81-33.75 115.87-37.06 116.04-40.43L116.04-40.43Q118.1-41.19 120.09-41.69 122.08-42.19 124.09-42.47 126.09-42.74 128.16-42.85 130.22-42.95 132.39-42.95L132.39-42.95Q135.73-42.95 138.85-42.03 141.97-41.1 144.38-39.26 146.78-37.41 148.23-34.66 149.68-31.9 149.68-28.24ZM136.55-27.3L136.55-27.3Q136.55-28.54 136.22-29.56 135.88-30.59 135.22-31.33 134.56-32.08 133.58-32.5 132.6-32.93 131.28-32.93L131.28-32.93Q130.69-32.93 130.14-32.86 129.58-32.78 129.05-32.64L129.05-32.64 128.58-21.74 129.29-21.74Q130.55-21.74 131.85-22.06 133.15-22.38 134.19-23.06 135.23-23.73 135.89-24.79 136.55-25.84 136.55-27.3ZM151.93-40.43L167.52-41.25 164.3-1.35 151.93-0.7 151.93-40.43Z" transform="translate(-1.350000023841858, 42.95000076293945)"></path></g> <!----> <!----> <!----> <!----> <!----> <!----> <!----></g></g> <!----></g></g><defs v-gra="od"></defs></svg>